<svg xmlns="http://www.w3.org/2000/svg" xmlns:xlink="http://www.w3.org/1999/xlink" width="2000" zoomAndPan="magnify" viewBox="0 0 1500 1499.999933" height="2000" preserveAspectRatio="xMidYMid meet" version="1.0"><defs><clipPath id="70127026c6"><path d="M 182.410156 209.789062 L 1317.351562 209.789062 L 1317.351562 1290.210938 L 182.410156 1290.210938 Z M 182.410156 209.789062 " clip-rule="nonzero"/></clipPath><clipPath id="70bce1b1bc"><path d="M 1258.082031 909.863281 C 1132.820312 968.894531 1018.71875 1035.179688 893.683594 1095.800781 C 875.78125 1103.960938 858.558594 1117.101562 855.554688 1137.554688 C 855.839844 1225.878906 944.558594 1179.988281 989.710938 1152.230469 C 1039.339844 1113.929688 1472.347656 959.320312 1258.082031 909.863281 Z M 1257.574219 733.046875 C 1164.152344 774.6875 1073.449219 828.394531 982.292969 874.738281 C 936.96875 905.105469 812.78125 933.941406 869.945312 1006.34375 C 923.257812 1046.683594 1136.164062 886.238281 1208.453125 862.5 C 1236.042969 845.957031 1268.5625 834.570312 1294.90625 815.535156 C 1336.265625 788 1306.410156 717.125 1257.574219 733.101562 Z M 913.457031 297.601562 C 848.984375 305.589844 850.742188 382.074219 922.578125 357.257812 C 936.628906 355.390625 949.375 362.074219 961.160156 369.15625 C 1028.859375 408.644531 1096.222656 448.699219 1164.09375 488.242188 C 1188.230469 507.109375 1262.332031 525.636719 1233.269531 566.03125 C 1142.960938 619.792969 1002.855469 688.0625 903.597656 740.863281 C 810.628906 781.542969 868.699219 878.816406 951.585938 819.953125 C 1036.679688 775.367188 1122 730.382812 1207.152344 685.851562 C 1250.433594 662.171875 1313.039062 640.757812 1315.472656 583.253906 C 1328.164062 470.453125 1185.679688 446.320312 1114.523438 392.15625 C 1048.40625 362.300781 989.542969 295.054688 913.511719 297.601562 Z M 535.007812 926.800781 C 506 929.578125 460.109375 952.976562 480.167969 983.683594 C 483.28125 988.386719 488.890625 992.746094 494.101562 993.824219 C 499.597656 995.128906 504.8125 993.710938 510.078125 991.332031 C 518.351562 987.480469 526.566406 982.039062 535.460938 979.320312 C 555.175781 972.523438 578.292969 983.457031 594.097656 998.074219 C 607.636719 1010.140625 613.984375 1027.25 616.53125 1044.53125 C 617.382812 1058.410156 609.28125 1071.496094 614.777344 1085.035156 C 618.796875 1093.820312 631.488281 1099.425781 641.289062 1099.144531 C 649.050781 1099.03125 655.453125 1094.328125 659.984375 1088.324219 C 670.808594 1073.082031 671.429688 1050.761719 669.335938 1033.085938 C 661.515625 970.3125 598.914062 919.152344 535.289062 926.800781 Z M 443.851562 553.394531 C 438.414062 554.019531 433.03125 555.265625 428.214844 557.757812 C 409.632812 566.824219 405.441406 595.546875 426.003906 603.25 C 433.425781 606.195312 442.605469 605.574219 450.648438 605.289062 C 467.363281 604.328125 484.585938 610.445312 494.953125 623.023438 C 513.59375 645.34375 506.398438 668.460938 518.746094 683.191406 C 524.582031 689.875 535.234375 692.140625 543.957031 694.464844 C 554.269531 697.011719 564.183594 700.640625 572.457031 706.984375 C 595.230469 723.246094 605.996094 753.441406 601.632812 781.371094 C 600.613281 789.757812 600.5 798.140625 605.203125 805.507812 C 615.171875 821.480469 637.890625 819.839844 647.917969 805.050781 C 650.410156 801.484375 652.226562 797.234375 653.527344 792.53125 C 666.5 739.164062 637.269531 680.128906 588.941406 655.144531 C 582.484375 651.804688 575.0625 649.199219 569.851562 644.15625 C 566.902344 641.378906 564.636719 637.921875 562.882812 633.957031 C 547.585938 582.34375 498.636719 547.785156 444.132812 553.28125 L 443.90625 553.28125 L 443.90625 553.394531 Z M 610.074219 432.949219 C 595.175781 437.085938 588.488281 455.441406 596.023438 468.640625 C 602.878906 480.652344 616.871094 482.351562 627.582031 491.359375 C 645.597656 505.410156 640.269531 523.878906 654.605469 536.738281 C 672.734375 552.773438 695.226562 530.335938 694.828125 510.679688 C 694.601562 489.886719 684.121094 470.679688 669.449219 455.949219 C 653.980469 441.050781 632.394531 426.320312 610.242188 432.835938 L 610.015625 432.835938 L 610.015625 432.949219 Z M 664.746094 263.101562 C 831.363281 284.570312 740.265625 598.152344 762.472656 732.027344 C 762.644531 846.296875 763.550781 1078.464844 760.832031 1152.058594 C 743.15625 1237.832031 631.207031 1271.769531 570.925781 1205.824219 C 511.269531 1141.179688 583.671875 1084.921875 458.808594 1109.285156 C 390.425781 1102.203125 338.589844 1031.78125 351.789062 964.308594 C 355.300781 926.121094 401.246094 905.558594 395.128906 864.425781 C 396.375 828.5625 465.832031 829.925781 443.398438 790.492188 C 409.460938 759.503906 360.003906 805.675781 347.371094 839.160156 C 341.363281 867.882812 325.386719 921.816406 287.882812 891.167969 C 199.21875 824.089844 233.097656 698.375 334.734375 668.347656 C 358.53125 635.542969 290.09375 613.503906 294.792969 558.382812 C 288.164062 453.003906 402.777344 362.925781 500.617188 414.707031 C 560.898438 412.835938 496.3125 257.773438 664.746094 263.042969 Z M 640.835938 209.789062 C 541.917969 217.777344 512.289062 274.941406 469.628906 348.761719 C 312.414062 328.761719 195.761719 496.742188 258.988281 639.054688 C 180.976562 712.082031 147.945312 826.582031 232.363281 911.277344 C 250.71875 937.90625 300.628906 942.324219 296.152344 980.511719 C 291.339844 1061.980469 354.449219 1140.558594 432.859375 1158.574219 C 456.824219 1164.578125 493.027344 1151.550781 498.011719 1185.65625 C 546.847656 1336.75 779.582031 1318.566406 813.859375 1166.675781 C 820.65625 1061.015625 816.125 802.105469 817.824219 651.40625 C 807.398438 474.023438 879.519531 214.832031 640.835938 209.84375 Z M 640.835938 209.789062 " clip-rule="nonzero"/></clipPath><clipPath id="243735a2a9"><path d="M 0.640625 0.789062 L 1135.351562 0.789062 L 1135.351562 1081.210938 L 0.640625 1081.210938 Z M 0.640625 0.789062 " clip-rule="nonzero"/></clipPath><clipPath id="e23f6179c1"><path d="M 1076.082031 700.863281 C 950.820312 759.894531 836.71875 826.179688 711.683594 886.800781 C 693.78125 894.960938 676.558594 908.101562 673.554688 928.554688 C 673.839844 1016.878906 762.558594 970.988281 807.710938 943.230469 C 857.339844 904.929688 1290.347656 750.320312 1076.082031 700.863281 Z M 1075.574219 524.046875 C 982.152344 565.6875 891.449219 619.394531 800.292969 665.738281 C 754.96875 696.105469 630.78125 724.941406 687.945312 797.34375 C 741.257812 837.683594 954.164062 677.238281 1026.453125 653.5 C 1054.042969 636.957031 1086.5625 625.570312 1112.90625 606.535156 C 1154.265625 579 1124.410156 508.125 1075.574219 524.101562 Z M 731.457031 88.601562 C 666.984375 96.589844 668.742188 173.074219 740.578125 148.257812 C 754.628906 146.390625 767.375 153.074219 779.160156 160.15625 C 846.859375 199.644531 914.222656 239.699219 982.09375 279.242188 C 1006.230469 298.109375 1080.332031 316.636719 1051.269531 357.03125 C 960.960938 410.792969 820.855469 479.0625 721.597656 531.863281 C 628.628906 572.542969 686.699219 669.816406 769.585938 610.953125 C 854.679688 566.367188 940 521.382812 1025.152344 476.851562 C 1068.433594 453.171875 1131.039062 431.757812 1133.472656 374.253906 C 1146.164062 261.453125 1003.679688 237.320312 932.523438 183.15625 C 866.40625 153.300781 807.542969 86.054688 731.511719 88.601562 Z M 353.007812 717.800781 C 324 720.578125 278.109375 743.976562 298.167969 774.683594 C 301.28125 779.386719 306.890625 783.746094 312.101562 784.824219 C 317.597656 786.128906 322.8125 784.710938 328.078125 782.332031 C 336.351562 778.480469 344.566406 773.039062 353.460938 770.320312 C 373.175781 763.523438 396.292969 774.457031 412.097656 789.074219 C 425.636719 801.140625 431.984375 818.25 434.53125 835.53125 C 435.382812 849.410156 427.28125 862.496094 432.777344 876.035156 C 436.796875 884.820312 449.488281 890.425781 459.289062 890.144531 C 467.050781 890.03125 473.453125 885.328125 477.984375 879.324219 C 488.808594 864.082031 489.429688 841.761719 487.335938 824.085938 C 479.515625 761.3125 416.914062 710.152344 353.289062 717.800781 Z M 261.851562 344.394531 C 256.414062 345.019531 251.03125 346.265625 246.214844 348.757812 C 227.632812 357.824219 223.441406 386.546875 244.003906 394.25 C 251.425781 397.195312 260.605469 396.574219 268.648438 396.289062 C 285.363281 395.328125 302.585938 401.445312 312.953125 414.023438 C 331.59375 436.34375 324.398438 459.460938 336.746094 474.191406 C 342.582031 480.875 353.234375 483.140625 361.957031 485.464844 C 372.269531 488.011719 382.183594 491.640625 390.457031 497.984375 C 413.230469 514.246094 423.996094 544.441406 419.632812 572.371094 C 418.613281 580.757812 418.5 589.140625 423.203125 596.507812 C 433.171875 612.480469 455.890625 610.839844 465.917969 596.050781 C 468.410156 592.484375 470.226562 588.234375 471.527344 583.53125 C 484.5 530.164062 455.269531 471.128906 406.941406 446.144531 C 400.484375 442.804688 393.0625 440.199219 387.851562 435.15625 C 384.902344 432.378906 382.636719 428.921875 380.882812 424.957031 C 365.585938 373.34375 316.636719 338.785156 262.132812 344.28125 L 261.90625 344.28125 L 261.90625 344.394531 Z M 428.074219 223.949219 C 413.175781 228.085938 406.488281 246.441406 414.023438 259.640625 C 420.878906 271.652344 434.871094 273.351562 445.582031 282.359375 C 463.597656 296.410156 458.269531 314.878906 472.605469 327.738281 C 490.734375 343.773438 513.226562 321.335938 512.828125 301.679688 C 512.601562 280.886719 502.121094 261.679688 487.449219 246.949219 C 471.980469 232.050781 450.394531 217.320312 428.242188 223.835938 L 428.015625 223.835938 L 428.015625 223.949219 Z M 482.746094 54.101562 C 649.363281 75.570312 558.265625 389.152344 580.472656 523.027344 C 580.644531 637.296875 581.550781 869.464844 578.832031 943.058594 C 561.15625 1028.832031 449.207031 1062.769531 388.925781 996.824219 C 329.269531 932.179688 401.671875 875.921875 276.808594 900.285156 C 208.425781 893.203125 156.589844 822.78125 169.789062 755.308594 C 173.300781 717.121094 219.246094 696.558594 213.128906 655.425781 C 214.375 619.5625 283.832031 620.925781 261.398438 581.492188 C 227.460938 550.503906 178.003906 596.675781 165.371094 630.160156 C 159.363281 658.882812 143.386719 712.816406 105.882812 682.167969 C 17.21875 615.089844 51.097656 489.375 152.734375 459.347656 C 176.53125 426.542969 108.09375 404.503906 112.792969 349.382812 C 106.164062 244.003906 220.777344 153.925781 318.617188 205.707031 C 378.898438 203.835938 314.3125 48.773438 482.746094 54.042969 Z M 458.835938 0.789062 C 359.917969 8.777344 330.289062 65.941406 287.628906 139.761719 C 130.414062 119.761719 13.761719 287.742188 76.988281 430.054688 C -1.023438 503.082031 -34.054688 617.582031 50.363281 702.277344 C 68.71875 728.90625 118.628906 733.324219 114.152344 771.511719 C 109.339844 852.980469 172.449219 931.558594 250.859375 949.574219 C 274.824219 955.578125 311.027344 942.550781 316.011719 976.65625 C 364.847656 1127.75 597.582031 1109.566406 631.859375 957.675781 C 638.65625 852.015625 634.125 593.105469 635.824219 442.40625 C 625.398438 265.023438 697.519531 5.832031 458.835938 0.84375 Z M 458.835938 0.789062 " clip-rule="nonzero"/></clipPath><clipPath id="b6b1749d45"><rect x="0" width="1136" y="0" height="1082"/></clipPath></defs><rect x="-150" width="1800" fill="#ffffff" y="-149.999993" height="1799.99992" fill-opacity="1"/><rect x="-150" width="1800" fill="#ffffff" y="-149.999993" height="1799.99992" fill-opacity="1"/><g clip-path="url(#70127026c6)"><g clip-path="url(#70bce1b1bc)"><g transform="matrix(1, 0, 0, 1, 182, 209)"><g clip-path="url(#b6b1749d45)"><g clip-path="url(#243735a2a9)"><g clip-path="url(#e23f6179c1)"><path fill="#ffffff" d="M 0.765625 0.789062 L 1135.351562 0.789062 L 1135.351562 1081.210938 L 0.765625 1081.210938 Z M 0.765625 0.789062 " fill-opacity="1" fill-rule="nonzero"/></g></g></g></g></g></g></svg>